<svg xmlns="http://www.w3.org/2000/svg" viewBox="0 0 38.66 48.84"><defs><style>.cls-1{fill:#e0e0e0;}.cls-2{fill:#686d6a;}</style></defs><title>order_icon</title><g id="Layer_2" data-name="Layer 2"><g id="Layer_1-2" data-name="Layer 1"><g id="Home_page_1" data-name="Home page 1"><g id="Nav_bar" data-name="Nav bar"><path class="cls-1" d="M0,1.81V45.73a2,2,0,0,0,3,1.56l1.79-1a2.18,2.18,0,0,1,2.46.28l1.9,1.71a2.18,2.18,0,0,0,2.85,0l2.32-2.09a2.18,2.18,0,0,1,2.85,0l2.08,1.87a2.18,2.18,0,0,0,2.85,0l1.71-1.54a2.18,2.18,0,0,1,2.85,0l1.41,1.27a2.18,2.18,0,0,0,2.85,0l1.41-1.27a2.18,2.18,0,0,1,2.85,0h0c1.27,1.14,3.44.33,3.44-1.28V1.81a1.92,1.92,0,0,0-2-1.81H2A1.92,1.92,0,0,0,0,1.81Z"/><rect class="cls-2" x="7.78" y="10" width="23.11" height="2.54" rx="1.27" ry="1.27"/><rect class="cls-2" x="7.78" y="16.12" width="23.11" height="2.54" rx="1.27" ry="1.27"/><rect class="cls-2" x="7.78" y="22.23" width="23.11" height="2.54" rx="1.27" ry="1.27"/><rect class="cls-2" x="7.78" y="28.35" width="13.25" height="2.54" rx="1.27" ry="1.27"/></g></g></g></g></svg>