<svg xmlns="http://www.w3.org/2000/svg" xmlns:xlink="http://www.w3.org/1999/xlink" viewBox="0 0 77.78 79.12"><defs><style>.cls-1{fill:none;}.cls-2{clip-path:url(#clip-path);}.cls-3{fill:#eff0e9;}.cls-4{fill:#2d2d2d;opacity:0.94;}</style><clipPath id="clip-path" transform="translate(-0.09 -0.06)"><rect class="cls-1" width="78" height="79.37"/></clipPath></defs><title>route_icon</title><g id="Layer_2" data-name="Layer 2"><g id="Layer_1-2" data-name="Layer 1"><g id="Home_page_1" data-name="Home page 1"><g id="Walgrenns_Card" data-name="Walgrenns Card"><g class="cls-2"><path class="cls-3" d="M27.14,38.27A14.93,14.93,0,0,0,15.89,33,14.92,14.92,0,0,0,4.65,38.27a19.3,19.3,0,0,0,0,24.92L15.89,75.9l11.24-12.7a19.3,19.3,0,0,0,0-24.92Z" transform="translate(-0.09 -0.06)"/></g><path class="cls-3" d="M63.7,32.38l8.52-9.61A14.49,14.49,0,0,0,72.23,4a11.15,11.15,0,0,0-17,0,14.49,14.49,0,0,0,0,18.75ZM57.15,5.78a8.51,8.51,0,0,1,13.1,0,11.78,11.78,0,0,1,0,15.24L63.7,28.4,57.15,21a11.78,11.78,0,0,1,0-15.24Zm0,0" transform="translate(-0.09 -0.06)"/><path class="cls-3" d="M68.79,72a1.32,1.32,0,0,0-1.58,1,4.57,4.57,0,0,1-.87,1.84,1.32,1.32,0,1,0,2.07,1.63,7.26,7.26,0,0,0,1.37-2.88,1.32,1.32,0,0,0-1-1.58Zm0,0" transform="translate(-0.09 -0.06)"/><path class="cls-3" d="M41.61,40.94a4.62,4.62,0,0,1-1.65-.3A1.32,1.32,0,0,0,39,43.1a7.29,7.29,0,0,0,2.59.48h.47a1.32,1.32,0,0,0,0-2.64Zm0,0" transform="translate(-0.09 -0.06)"/><path class="cls-3" d="M38.48,32.6a1.32,1.32,0,0,0,.7-.2,4.56,4.56,0,0,1,1.92-.66,1.32,1.32,0,0,0-.29-2.62,7.15,7.15,0,0,0-3,1,1.32,1.32,0,0,0,.7,2.44Zm0,0" transform="translate(-0.09 -0.06)"/><path class="cls-3" d="M23.24,76.54H20.6a1.32,1.32,0,0,0,0,2.64h2.64a1.32,1.32,0,1,0,0-2.64Zm0,0" transform="translate(-0.09 -0.06)"/><path class="cls-3" d="M46.88,52.81h-.34a1.32,1.32,0,0,0,.05,2.64h2.64a1.32,1.32,0,0,0,0-2.64Zm0,0" transform="translate(-0.09 -0.06)"/><path class="cls-3" d="M46.22,31.71h2.64a1.32,1.32,0,0,0,0-2.64H46.22a1.32,1.32,0,1,0,0,2.64Zm0,0" transform="translate(-0.09 -0.06)"/><path class="cls-3" d="M62.42,52.81a1.32,1.32,0,1,0,0,2.64h2.64a1.32,1.32,0,1,0,0-2.64Zm0,0" transform="translate(-0.09 -0.06)"/><path class="cls-3" d="M67.14,42.26a1.32,1.32,0,0,0-1.32-1.32H63.18a1.32,1.32,0,0,0,0,2.64h2.64a1.32,1.32,0,0,0,1.32-1.32Zm0,0" transform="translate(-0.09 -0.06)"/><path class="cls-3" d="M54.51,55.45h2.64a1.32,1.32,0,0,0,0-2.64H54.51a1.32,1.32,0,0,0,0,2.64Zm0,0" transform="translate(-0.09 -0.06)"/><path class="cls-3" d="M56.77,31.71a1.32,1.32,0,0,0,0-2.64H54.14a1.32,1.32,0,0,0,0,2.64Zm0,0" transform="translate(-0.09 -0.06)"/><path class="cls-3" d="M47.36,40.94a1.32,1.32,0,0,0,0,2.64H50a1.32,1.32,0,1,0,0-2.64Zm0,0" transform="translate(-0.09 -0.06)"/><path class="cls-3" d="M59.22,42.26a1.32,1.32,0,0,0-1.32-1.32H55.27a1.32,1.32,0,1,0,0,2.64h2.64a1.32,1.32,0,0,0,1.32-1.32Zm0,0" transform="translate(-0.09 -0.06)"/><path class="cls-3" d="M77.78,47a1.32,1.32,0,0,0-2.6.42,4.29,4.29,0,0,1,.06.73A4.63,4.63,0,0,1,75,49.5a1.32,1.32,0,0,0,.9,1.64,1.34,1.34,0,0,0,.37.05,1.32,1.32,0,0,0,1.27-.95,7.29,7.29,0,0,0,.29-2A7,7,0,0,0,77.78,47Zm0,0" transform="translate(-0.09 -0.06)"/><path class="cls-3" d="M54.89,76.54H52.25a1.32,1.32,0,0,0,0,2.64h2.64a1.32,1.32,0,0,0,0-2.64Zm0,0" transform="translate(-0.09 -0.06)"/><path class="cls-3" d="M47,76.54H44.34a1.32,1.32,0,0,0,0,2.64H47a1.32,1.32,0,0,0,0-2.64Zm0,0" transform="translate(-0.09 -0.06)"/><path class="cls-3" d="M61.48,66a1.32,1.32,0,0,0-1.32-1.32H57.53a1.32,1.32,0,0,0,0,2.64h2.64A1.32,1.32,0,0,0,61.48,66Zm0,0" transform="translate(-0.09 -0.06)"/><path class="cls-3" d="M53.57,66a1.32,1.32,0,0,0-1.32-1.32H49.62a1.32,1.32,0,0,0,0,2.64h2.64A1.32,1.32,0,0,0,53.57,66Zm0,0" transform="translate(-0.09 -0.06)"/><path class="cls-3" d="M62.71,76.54H60.16a1.32,1.32,0,0,0,0,2.64h2.6l0-1.32v1.32a1.28,1.28,0,0,0,1.27-1.32,1.36,1.36,0,0,0-1.36-1.32Zm0,0" transform="translate(-0.09 -0.06)"/><path class="cls-3" d="M67.37,69.58a1.32,1.32,0,0,0,1-2.13,7.31,7.31,0,0,0-2.48-2,1.32,1.32,0,1,0-1.17,2.36,4.62,4.62,0,0,1,1.58,1.28,1.32,1.32,0,0,0,1,.5Zm0,0" transform="translate(-0.09 -0.06)"/><path class="cls-3" d="M72.4,52.45a4.57,4.57,0,0,1-1.78.36h-.28a1.32,1.32,0,1,0,0,2.64h.28a7.2,7.2,0,0,0,2.8-.56,1.32,1.32,0,0,0-1-2.43Zm0,0" transform="translate(-0.09 -0.06)"/><path class="cls-3" d="M36.38,39.43a1.32,1.32,0,0,0,.84-1.67A4.61,4.61,0,0,1,37,36.33a5.31,5.31,0,0,1,0-.59,1.32,1.32,0,1,0-2.62-.33,7.74,7.74,0,0,0-.06.92,7.26,7.26,0,0,0,.36,2.27A1.32,1.32,0,0,0,36,39.5a1.26,1.26,0,0,0,.41-.07Zm0,0" transform="translate(-0.09 -0.06)"/><path class="cls-3" d="M31.15,76.54H28.52a1.32,1.32,0,0,0,0,2.64h2.64a1.32,1.32,0,0,0,0-2.64Zm0,0" transform="translate(-0.09 -0.06)"/><path class="cls-3" d="M44.42,66.78A1.32,1.32,0,0,0,45,64.26,4.67,4.67,0,0,1,43.35,63a1.32,1.32,0,1,0-2,1.7,7.3,7.3,0,0,0,2.54,1.93,1.33,1.33,0,0,0,.55.12Zm0,0" transform="translate(-0.09 -0.06)"/><path class="cls-3" d="M74.25,41.91a7.18,7.18,0,0,0-3.06-1A1.32,1.32,0,0,0,71,43.59a4.54,4.54,0,0,1,1.94.6,1.32,1.32,0,1,0,1.32-2.28Zm0,0" transform="translate(-0.09 -0.06)"/><path class="cls-3" d="M39.07,76.54H36.43a1.32,1.32,0,0,0,0,2.64h2.64a1.32,1.32,0,0,0,0-2.64Zm0,0" transform="translate(-0.09 -0.06)"/><path class="cls-3" d="M42.35,59.19a4.59,4.59,0,0,1,.82-1.86A1.32,1.32,0,0,0,41,55.76a7.24,7.24,0,0,0-1.28,2.93,1.32,1.32,0,0,0,1,1.54l.25,0a1.33,1.33,0,0,0,1.29-1.07Zm0,0" transform="translate(-0.09 -0.06)"/><path class="cls-3" d="M64,19.84a7.25,7.25,0,1,0-7.25-7.25A7.26,7.26,0,0,0,64,19.84ZM64,8a4.62,4.62,0,1,1-4.61,4.61A4.62,4.62,0,0,1,64,8Zm0,0" transform="translate(-0.09 -0.06)"/><path class="cls-4" d="M15.89,40.94a7.91,7.91,0,1,0,7.91,7.91,7.92,7.92,0,0,0-7.91-7.91Zm0,13.19a5.27,5.27,0,1,1,5.28-5.28,5.28,5.28,0,0,1-5.28,5.28Zm0,0" transform="translate(-0.09 -0.06)"/></g></g></g></g></svg>